<?xml version="1.0" encoding="UTF-8"?>
<svg id="Vrstva_2" xmlns="http://www.w3.org/2000/svg" viewBox="0 0 28.59 28.31">
  <defs>
    <style>
      .cls-1 {
        fill: #e31838;
      }
    </style>
  </defs>
  <g id="Elementy">
    <path class="cls-1" d="M1.16,27.14h0c1.55,1.55,4.24,1.55,5.79,0l7.34-7.2,7.34,7.2c1.55,1.55,4.24,1.55,5.79,0h0c1.55-1.55,1.55-4.24,0-5.79l-7.2-7.2,7.2-7.2c1.55-1.55,1.55-4.24,0-5.79h0c-1.55-1.55-4.24-1.55-5.79,0l-7.34,7.2L6.95,1.16C5.4-.39,2.72-.39,1.16,1.16h0C-.39,2.72-.39,5.4,1.16,6.95l7.2,7.2-7.2,7.2c-1.55,1.69-1.55,4.24,0,5.79Z"/>
  </g>
</svg>