<?xml version="1.0" encoding="UTF-8"?>
<svg id="Vrstva_2" xmlns="http://www.w3.org/2000/svg" viewBox="0 0 51.84 38.35">
  <defs>
    <style>
      .cls-1 {
        fill: #fff;
      }
    </style>
  </defs>
  <g id="Elementy">
    <g>
      <path class="cls-1" d="M47.01.11c-2.66,0-4.83,2.17-4.83,4.83v28.46c0,2.66,2.17,4.83,4.83,4.83s4.83-2.17,4.83-4.83V4.94c0-2.66-2.17-4.83-4.83-4.83ZM47.01,3.32c.9,0,1.62.73,1.62,1.62v3.14h-3.24v-3.14c0-.9.73-1.62,1.62-1.62ZM45.39,30.26v-1.09h3.24v1.09h-3.24ZM48.63,23.23h-3.24v-1.09h3.24v1.09ZM45.39,15.11v-5.94h3.24v5.94h-3.24Z"/>
      <rect class="cls-1" x="10.37" y="27.93" width="13.93" height="4.78"/>
      <path class="cls-1" d="M17.34,38.35c2.36,0,4.27-1.91,4.27-4.27h-8.54c0,2.36,1.91,4.27,4.27,4.27Z"/>
      <path class="cls-1" d="M2.52,22.88l-1.21.54c-.81.36-1.17,1.31-.81,2.12.27.6.85.95,1.47.95.22,0,.44-.04.65-.14l1.21-.54c.81-.36,1.17-1.31.81-2.12s-1.31-1.18-2.12-.81Z"/>
      <path class="cls-1" d="M1.03,13.1l1.24.47c.19.07.38.11.57.11.65,0,1.25-.39,1.5-1.03.32-.83-.1-1.76-.92-2.07l-1.24-.47c-.82-.31-1.76.1-2.07.92-.32.83.1,1.76.92,2.07Z"/>
      <path class="cls-1" d="M9.82,3.82c.27.6.85.95,1.47.95.22,0,.44-.04.65-.14.81-.36,1.17-1.31.81-2.12l-.54-1.21c-.36-.81-1.31-1.18-2.12-.81-.81.36-1.17,1.31-.81,2.12l.54,1.21Z"/>
      <path class="cls-1" d="M22.98,4.34c.19.07.38.11.57.11.65,0,1.25-.39,1.5-1.03l.47-1.24c.32-.83-.1-1.76-.92-2.07-.82-.31-1.75.1-2.07.92l-.47,1.24c-.32.83.1,1.76.92,2.07Z"/>
      <path class="cls-1" d="M32.46,12.88c.22,0,.44-.04.65-.14l1.21-.54c.81-.36,1.17-1.31.82-2.12-.36-.81-1.31-1.17-2.12-.82l-1.21.54c-.81.36-1.17,1.31-.82,2.12.27.6.85.95,1.47.95Z"/>
      <path class="cls-1" d="M37.73,19.59c-.58-.76-1.7-.82-2.36-.14-.1.1-.22.21-.32.31l-.26-2.15c-.11-.88-.89-1.51-1.79-1.4-.88.11-1.51.91-1.4,1.79l.5,4.13c0,.08.05.15.07.23-.81.53-1.7.91-2.46.7-.6-.16-1.06-.67-1.38-1.15.56-1.39.86-2.88.86-4.41,0-3.16-1.23-6.14-3.47-8.38-4.48-4.48-12.28-4.48-16.76,0-4.62,4.62-4.62,12.14,0,16.76l.47.47h15.82l.47-.47c.33-.33.59-.7.87-1.06.59.57,1.31,1.08,2.25,1.34.43.12.88.18,1.33.18,1.08,0,2.21-.38,3.37-1.06.37.31.88.45,1.39.34l3.93-.93c1.1-.26,1.57-1.57.88-2.47l-2.01-2.62ZM17.94,19.59c0,.89-.72,1.61-1.61,1.61s-1.61-.72-1.61-1.61v-4.51c0-.89.72-1.61,1.61-1.61s1.61.72,1.61,1.61v4.51ZM23.69,19.59c0,.89-.72,1.61-1.61,1.61s-1.61-.72-1.61-1.61v-4.51c0-.89.72-1.61,1.61-1.61s1.61.72,1.61,1.61v4.51Z"/>
    </g>
  </g>
</svg>