<?xml version="1.0" encoding="UTF-8"?>
<svg id="Vrstva_2" xmlns="http://www.w3.org/2000/svg" viewBox="0 0 51.7 38.35">
  <defs>
    <style>
      .cls-1 {
        fill: #0070bb;
      }
    </style>
  </defs>
  <g id="Elementy">
    <g>
      <path class="cls-1" d="M2.52,22.87l-1.21.54c-.81.36-1.17,1.31-.81,2.12.27.6.85.95,1.47.95.22,0,.44-.04.65-.14l1.21-.54c.81-.36,1.17-1.31.81-2.12-.36-.81-1.31-1.18-2.12-.81Z"/>
      <path class="cls-1" d="M1.03,13.1l1.24.47c.19.07.38.11.57.11.65,0,1.25-.39,1.5-1.03.32-.83-.1-1.76-.92-2.07l-1.24-.47c-.82-.31-1.75.1-2.07.92s.1,1.76.92,2.07Z"/>
      <path class="cls-1" d="M9.82,3.82c.27.6.85.95,1.47.95.22,0,.44-.04.65-.14.81-.36,1.17-1.31.81-2.12l-.54-1.21c-.36-.81-1.31-1.17-2.12-.81-.81.36-1.17,1.31-.81,2.12l.54,1.21Z"/>
      <path class="cls-1" d="M22.97,4.34c.19.07.38.11.57.11.65,0,1.25-.39,1.5-1.03l.47-1.24c.32-.83-.1-1.76-.92-2.07-.82-.31-1.76.1-2.07.92l-.47,1.24c-.32.83.1,1.76.92,2.07Z"/>
      <path class="cls-1" d="M32.46,12.88c.22,0,.44-.04.65-.14l1.21-.54c.81-.36,1.17-1.31.81-2.12-.36-.81-1.3-1.18-2.12-.81l-1.21.54c-.81.36-1.17,1.31-.81,2.12.26.6.85.95,1.47.95Z"/>
      <path class="cls-1" d="M34.59,22.52l-1.24-.47c-.82-.32-1.76.1-2.07.92-.32.83.1,1.76.92,2.07l1.24.47c.19.07.38.11.57.11.65,0,1.25-.39,1.5-1.03.32-.83-.1-1.76-.92-2.07Z"/>
      <path class="cls-1" d="M8.96,9.12c-4.62,4.62-4.62,12.14,0,16.76l.47.47h15.82l.47-.47c2.24-2.24,3.47-5.21,3.47-8.38s-1.23-6.14-3.47-8.38c-4.48-4.48-12.28-4.48-16.76,0ZM16.07,19.42c0,.89-.72,1.61-1.61,1.61s-1.61-.72-1.61-1.61v-4.51c0-.89.72-1.61,1.61-1.61s1.61.72,1.61,1.61v4.51ZM21.82,19.42c0,.89-.72,1.61-1.61,1.61s-1.61-.72-1.61-1.61v-4.51c0-.89.72-1.61,1.61-1.61s1.61.72,1.61,1.61v4.51Z"/>
      <rect class="cls-1" x="10.37" y="27.93" width="13.93" height="4.78"/>
      <path class="cls-1" d="M17.34,38.35c2.36,0,4.27-1.91,4.27-4.27h-8.54c0,2.36,1.91,4.27,4.27,4.27Z"/>
      <path class="cls-1" d="M46.87.11c-2.66,0-4.83,2.17-4.83,4.83v28.46c0,2.66,2.17,4.83,4.83,4.83s4.83-2.17,4.83-4.83V4.94c0-2.66-2.17-4.83-4.83-4.83ZM46.87,3.32c.9,0,1.62.73,1.62,1.62v3.14h-3.24v-3.14c0-.9.73-1.62,1.62-1.62ZM45.25,29.18v-5.94h3.24v5.94h-3.24ZM45.25,22.15v-5.95h3.24v5.95h-3.24ZM45.25,15.11v-5.94h3.24v5.94h-3.24Z"/>
    </g>
  </g>
</svg>