<?xml version="1.0" encoding="UTF-8"?>
<svg id="Vrstva_2" xmlns="http://www.w3.org/2000/svg" viewBox="0 0 51.84 38.35">
  <g id="Elementy">
    <g>
      <rect x="10.37" y="27.93" width="13.93" height="4.78"/>
      <path d="M17.34,38.35c2.36,0,4.27-1.91,4.27-4.27h-8.54c0,2.36,1.91,4.27,4.27,4.27Z"/>
      <path d="M37.4,17.43c-.73.5-.92,1.5-.42,2.23.43.64.46,1.02.4,1.11-.15.24.05.65-1.71.21-.82-1.82-2.36-2.84-4-2.72-1.13.09-2.09.75-2.75,1.71.17-.81.27-1.63.27-2.48,0-3.16-1.23-6.14-3.47-8.38-4.48-4.48-12.28-4.48-16.76,0-4.62,4.62-4.62,12.14,0,16.76l.47.47h15.82l.47-.47c.37-.37.67-.78.98-1.19.45.13.92.22,1.39.22.34,0,.67-.04,1-.14.95-.29,1.66-1.02,2.04-2.15.21-.81.6-1.13.81-1.15.22.04.54.24.81.84.49,1.08,1.29,1.77,2.28,1.95,2.87.5,4.03-.14,5.06-1.73.4-.62,1.16-2.31-.44-4.66-.5-.73-1.5-.92-2.23-.42ZM17.94,17.32c0,.89-.72,1.61-1.61,1.61s-1.61-.72-1.61-1.61v-2.25c0-.89.72-1.61,1.61-1.61s1.61.72,1.61,1.61v2.25ZM20.48,17.32v-2.25c0-.89.72-1.61,1.61-1.61s1.61.72,1.61,1.61v2.25c0,.89-.72,1.61-1.61,1.61s-1.61-.72-1.61-1.61Z"/>
      <path d="M2.52,22.88l-1.21.54c-.81.36-1.17,1.31-.82,2.12.27.6.85.95,1.47.95.22,0,.44-.04.65-.14l1.21-.54c.81-.36,1.17-1.31.82-2.12-.36-.81-1.31-1.17-2.12-.82Z"/>
      <path d="M1.03,13.1l1.24.47c.19.07.38.11.57.11.65,0,1.25-.39,1.5-1.03.32-.83-.1-1.76-.92-2.07l-1.24-.47c-.82-.32-1.75.1-2.07.92-.32.83.1,1.76.92,2.07Z"/>
      <path d="M9.82,3.82c.27.6.85.95,1.47.95.22,0,.44-.04.65-.14.81-.36,1.17-1.31.81-2.12l-.54-1.21c-.36-.81-1.31-1.18-2.12-.81-.81.36-1.17,1.31-.81,2.12l.54,1.21Z"/>
      <path d="M22.98,4.34c.19.07.38.11.57.11.65,0,1.25-.39,1.5-1.03l.47-1.24c.32-.83-.1-1.76-.92-2.07-.82-.31-1.76.1-2.07.92l-.47,1.24c-.32.83.1,1.76.92,2.07Z"/>
      <path d="M32.46,12.88c.22,0,.44-.04.65-.14l1.21-.54c.81-.36,1.17-1.31.82-2.12s-1.31-1.17-2.12-.82l-1.21.54c-.81.36-1.17,1.31-.82,2.12.27.6.85.95,1.47.95Z"/>
      <path d="M47.01.11c-2.66,0-4.83,2.17-4.83,4.83v28.46c0,2.66,2.17,4.83,4.83,4.83s4.83-2.17,4.83-4.83V4.94c0-2.66-2.17-4.83-4.83-4.83ZM48.63,8.08v1.09h-3.24v-1.09h3.24ZM48.63,15.11v1.09h-3.24v-1.09h3.24ZM48.63,22.15v1.09h-3.24v-1.09h3.24ZM48.63,29.18v1.09h-3.24v-1.09h3.24Z"/>
    </g>
  </g>
</svg>